STARTFONT 2.1
COMMENT
COMMENT Converted from OpenType font "Segment7Standard.otf" by "otf2bdf 3.0".
COMMENT
FONT -FreeType-Segment7-Medium-I-Normal--33-240-100-100-P-60-ISO10646-1
SIZE 24 100 100
FONTBOUNDINGBOX 33 34 0 -7
STARTPROPERTIES 19
FOUNDRY "FreeType"
FAMILY_NAME "Segment7"
WEIGHT_NAME "Medium"
SLANT "I"
SETWIDTH_NAME "Normal"
ADD_STYLE_NAME ""
PIXEL_SIZE 33
POINT_SIZE 240
RESOLUTION_X 100
RESOLUTION_Y 100
SPACING "P"
AVERAGE_WIDTH 60
CHARSET_REGISTRY "ISO10646"
CHARSET_ENCODING "1"
FONT_ASCENT 26
FONT_DESCENT 6
COPYRIGHT "Strictly seven-segment (plus point) calculator display face, fixed-width and free.  (c) Cedric Knight 2014.  Licensed under SIL Open Font Licence v1.1.  Reserved name: Segment7."
_OTF_FONTFILE "Segment7Standard.otf"
_OTF_PSNAME "Segment7Standard"
ENDPROPERTIES
CHARS 256
STARTCHAR 0000
ENCODING 0
SWIDTH 600 0
DWIDTH 20 0
BBX 33 33 0 -7
BITMAP
FFFFFFFF80
FFFFFFFF80
FFFFFFFF80
FFFFFFFF80
FFFFFFFF80
FFFFFFFF80
FFFFFFFF80
FFFFFFFF80
FFFFFFFF80
FFFFFFFF80
FFFFFFFF80
FFFFFFFF80
FFFFFFFF80
FFFFFFFF80
FFFFFFFF80
FFFFFFFF80
FFFFFFFF80
FFFFFFFF80
FFFFFFFF80
FFFFFFFF80
FFFFFFFF80
FFFFFFFF80
FFFFFFFF80
FFFFFFFF80
FFFFFFFF80
FFFFFFFF80
FFFFFFFF80
FFFFFFFF80
FFFFFFFF80
FFFFFFFF80
FFFFFFFF80
FFFFFFFF80
FFFFFFFF80
ENDCHAR
STARTCHAR 0001
ENCODING 1
SWIDTH 600 0
DWIDTH 20 0
BBX 0 0 0 0
BITMAP
ENDCHAR
STARTCHAR 0002
ENCODING 2
SWIDTH 600 0
DWIDTH 20 0
BBX 0 0 0 0
BITMAP
ENDCHAR
STARTCHAR 0003
ENCODING 3
SWIDTH 600 0
DWIDTH 20 0
BBX 0 0 0 0
BITMAP
ENDCHAR
STARTCHAR 0004
ENCODING 4
SWIDTH 600 0
DWIDTH 20 0
BBX 0 0 0 0
BITMAP
ENDCHAR
STARTCHAR 0005
ENCODING 5
SWIDTH 600 0
DWIDTH 20 0
BBX 0 0 0 0
BITMAP
ENDCHAR
STARTCHAR 0006
ENCODING 6
SWIDTH 600 0
DWIDTH 20 0
BBX 0 0 0 0
BITMAP
ENDCHAR
STARTCHAR 0007
ENCODING 7
SWIDTH 600 0
DWIDTH 20 0
BBX 0 0 0 0
BITMAP
ENDCHAR
STARTCHAR 0008
ENCODING 8
SWIDTH 600 0
DWIDTH 20 0
BBX 0 0 0 0
BITMAP
ENDCHAR
STARTCHAR 0009
ENCODING 9
SWIDTH 600 0
DWIDTH 20 0
BBX 0 0 0 0
BITMAP
ENDCHAR
STARTCHAR 000A
ENCODING 10
SWIDTH 600 0
DWIDTH 20 0
BBX 0 0 0 0
BITMAP
ENDCHAR
STARTCHAR 000B
ENCODING 11
SWIDTH 600 0
DWIDTH 20 0
BBX 0 0 0 0
BITMAP
ENDCHAR
STARTCHAR 000C
ENCODING 12
SWIDTH 600 0
DWIDTH 20 0
BBX 0 0 0 0
BITMAP
ENDCHAR
STARTCHAR 000D
ENCODING 13
SWIDTH 600 0
DWIDTH 20 0
BBX 0 0 0 0
BITMAP
ENDCHAR
STARTCHAR 000E
ENCODING 14
SWIDTH 600 0
DWIDTH 20 0
BBX 0 0 0 0
BITMAP
ENDCHAR
STARTCHAR 000F
ENCODING 15
SWIDTH 600 0
DWIDTH 20 0
BBX 0 0 0 0
BITMAP
ENDCHAR
STARTCHAR 0010
ENCODING 16
SWIDTH 600 0
DWIDTH 20 0
BBX 0 0 0 0
BITMAP
ENDCHAR
STARTCHAR 0011
ENCODING 17
SWIDTH 600 0
DWIDTH 20 0
BBX 0 0 0 0
BITMAP
ENDCHAR
STARTCHAR 0012
ENCODING 18
SWIDTH 600 0
DWIDTH 20 0
BBX 0 0 0 0
BITMAP
ENDCHAR
STARTCHAR 0013
ENCODING 19
SWIDTH 600 0
DWIDTH 20 0
BBX 0 0 0 0
BITMAP
ENDCHAR
STARTCHAR 0014
ENCODING 20
SWIDTH 600 0
DWIDTH 20 0
BBX 0 0 0 0
BITMAP
ENDCHAR
STARTCHAR 0015
ENCODING 21
SWIDTH 600 0
DWIDTH 20 0
BBX 0 0 0 0
BITMAP
ENDCHAR
STARTCHAR 0016
ENCODING 22
SWIDTH 600 0
DWIDTH 20 0
BBX 0 0 0 0
BITMAP
ENDCHAR
STARTCHAR 0017
ENCODING 23
SWIDTH 600 0
DWIDTH 20 0
BBX 0 0 0 0
BITMAP
ENDCHAR
STARTCHAR 0018
ENCODING 24
SWIDTH 600 0
DWIDTH 20 0
BBX 0 0 0 0
BITMAP
ENDCHAR
STARTCHAR 0019
ENCODING 25
SWIDTH 600 0
DWIDTH 20 0
BBX 0 0 0 0
BITMAP
ENDCHAR
STARTCHAR 001A
ENCODING 26
SWIDTH 600 0
DWIDTH 20 0
BBX 0 0 0 0
BITMAP
ENDCHAR
STARTCHAR 001B
ENCODING 27
SWIDTH 600 0
DWIDTH 20 0
BBX 0 0 0 0
BITMAP
ENDCHAR
STARTCHAR 001C
ENCODING 28
SWIDTH 600 0
DWIDTH 20 0
BBX 0 0 0 0
BITMAP
ENDCHAR
STARTCHAR 001D
ENCODING 29
SWIDTH 600 0
DWIDTH 20 0
BBX 0 0 0 0
BITMAP
ENDCHAR
STARTCHAR 001E
ENCODING 30
SWIDTH 600 0
DWIDTH 20 0
BBX 0 0 0 0
BITMAP
ENDCHAR
STARTCHAR 001F
ENCODING 31
SWIDTH 600 0
DWIDTH 20 0
BBX 0 0 0 0
BITMAP
ENDCHAR
STARTCHAR 0020
ENCODING 32
SWIDTH 600 0
DWIDTH 20 0
BBX 0 0 0 0
BITMAP
ENDCHAR
STARTCHAR 0021
ENCODING 33
SWIDTH 600 0
DWIDTH 20 0
BBX 6 26 14 -1
BITMAP
10
30
70
E0
E0
E0
E0
E0
E0
E0
E0
00
00
00
00
00
00
00
00
00
00
00
00
1C
1C
1C
ENDCHAR
STARTCHAR 0022
ENCODING 34
SWIDTH 600 0
DWIDTH 20 0
BBX 16 10 2 15
BITMAP
8003
600F
700E
600E
E00E
E00E
E00E
E00E
E00E
8004
ENDCHAR
STARTCHAR 0023
ENCODING 35
SWIDTH 600 0
DWIDTH 20 0
BBX 16 25 2 0
BITMAP
0001
0003
0007
000E
000E
000E
000E
000E
000E
000E
1FF4
7FF8
3FF8
0000
0000
0000
0000
0000
0000
0000
0000
0000
3FF0
FFF8
FFF8
ENDCHAR
STARTCHAR 0024
ENCODING 36
SWIDTH 600 0
DWIDTH 20 0
BBX 15 27 2 0
BITMAP
3FFE
7FFC
9FF8
6000
7000
7000
E000
E000
E000
E000
E000
E000
8000
0000
0004
000E
000E
000E
000E
000E
000E
000E
000E
000C
3FFC
7FFC
FFFC
ENDCHAR
STARTCHAR 0025
ENCODING 37
SWIDTH 600 0
DWIDTH 20 0
BBX 15 27 2 0
BITMAP
3FFE
7FFC
9FF8
6000
7000
7000
E000
E000
E000
E000
E000
E000
8000
0000
0004
000E
000E
000E
000E
000E
000E
000E
000E
000C
3FFC
7FFC
FFFC
ENDCHAR
STARTCHAR 0026
ENCODING 38
SWIDTH 600 0
DWIDTH 20 0
BBX 15 25 3 0
BITMAP
0002
0006
000E
001C
001C
001C
001C
001C
001C
001C
001C
3FE8
FFF8
3FE8
001C
001C
001C
001C
001C
001C
001C
001C
0018
0018
0008
ENDCHAR
STARTCHAR 0027
ENCODING 39
SWIDTH 600 0
DWIDTH 20 0
BBX 4 11 14 14
BITMAP
10
30
70
E0
E0
E0
E0
E0
E0
E0
40
ENDCHAR
STARTCHAR 0028
ENCODING 40
SWIDTH 600 0
DWIDTH 20 0
BBX 15 27 2 0
BITMAP
3FFE
7FFC
9FF8
6000
7000
7000
E000
E000
E000
E000
E000
E000
8000
0000
8000
E000
E000
E000
E000
E000
E000
E000
E000
C000
BFF0
FFF8
FFF8
ENDCHAR
STARTCHAR 0029
ENCODING 41
SWIDTH 600 0
DWIDTH 20 0
BBX 16 27 2 0
BITMAP
3FFE
7FFC
1FF9
0003
0007
000E
000E
000E
000E
000E
000E
000E
0004
0000
0004
000E
000E
000E
000E
000E
000E
000E
000E
000C
3FFC
7FFC
FFFC
ENDCHAR
STARTCHAR 002A
ENCODING 42
SWIDTH 600 0
DWIDTH 20 0
BBX 16 25 2 0
BITMAP
0001
0003
0007
000E
000E
000E
000E
000E
000E
000E
1FF4
7FF8
3FF8
0000
0000
0000
0000
0000
0000
0000
0000
0000
3FF0
FFF8
FFF8
ENDCHAR
STARTCHAR 002B
ENCODING 43
SWIDTH 600 0
DWIDTH 20 0
BBX 15 25 3 0
BITMAP
0002
0006
000E
001C
001C
001C
001C
001C
001C
001C
001C
3FE8
FFF8
3FE8
001C
001C
001C
001C
001C
001C
001C
0018
0018
0018
0008
ENDCHAR
STARTCHAR 002C
ENCODING 44
SWIDTH 600 0
DWIDTH 20 0
BBX 15 13 2 0
BITMAP
0004
000E
000E
000E
000E
000E
000E
000E
000E
000E
3FFC
7FFC
FFFC
ENDCHAR
STARTCHAR 002D
ENCODING 45
SWIDTH 600 0
DWIDTH 20 0
BBX 12 3 3 12
BITMAP
3FE0
FFF0
7FF0
ENDCHAR
STARTCHAR 002E
ENCODING 46
SWIDTH 600 0
DWIDTH 20 0
BBX 3 3 17 -1
BITMAP
E0
E0
E0
ENDCHAR
STARTCHAR 002F
ENCODING 47
SWIDTH 600 0
DWIDTH 20 0
BBX 16 23 2 2
BITMAP
0001
0003
0007
000E
000E
000E
000E
000E
000E
000E
1FF4
7FF8
BFF8
E000
E000
E000
E000
E000
E000
E000
E000
C000
8000
ENDCHAR
STARTCHAR 0030
ENCODING 48
SWIDTH 600 0
DWIDTH 20 0
BBX 16 27 2 0
BITMAP
3FFE
7FFC
9FF9
6003
7007
700E
E00E
E00E
E00E
E00E
E00E
E00E
8004
0000
8004
E00E
E00E
E00E
E00E
E00E
E00E
E00E
E00E
C00C
BFFC
7FFC
FFFC
ENDCHAR
STARTCHAR 0031
ENCODING 49
SWIDTH 600 0
DWIDTH 20 0
BBX 4 25 14 0
BITMAP
10
30
70
E0
E0
E0
E0
E0
E0
E0
E0
40
00
40
E0
E0
E0
E0
E0
E0
E0
E0
C0
C0
40
ENDCHAR
STARTCHAR 0032
ENCODING 50
SWIDTH 600 0
DWIDTH 20 0
BBX 16 27 2 0
BITMAP
3FFE
7FFC
1FF9
0003
0007
000E
000E
000E
000E
000E
000E
000E
1FF4
FFFC
FFF0
E000
E000
E000
E000
E000
E000
E000
E000
C000
BFF0
FFF8
FFF8
ENDCHAR
STARTCHAR 0033
ENCODING 51
SWIDTH 600 0
DWIDTH 20 0
BBX 16 27 2 0
BITMAP
3FFE
7FFC
1FF9
0003
0007
000E
000E
000E
000E
000E
000E
000E
1FF4
7FFC
1FF4
000E
000E
000E
000E
000E
000E
000E
000E
000E
3FFC
7FFC
FFFC
ENDCHAR
STARTCHAR 0034
ENCODING 52
SWIDTH 600 0
DWIDTH 20 0
BBX 16 25 2 0
BITMAP
8001
6003
7007
700E
E00E
E00E
E00E
E00E
E00E
E00E
9FF4
7FF8
3FFC
000E
000E
000E
000E
000E
000E
000E
000E
000C
000C
0004
0004
ENDCHAR
STARTCHAR 0035
ENCODING 53
SWIDTH 600 0
DWIDTH 20 0
BBX 15 27 2 0
BITMAP
3FFE
7FFC
9FF8
6000
7000
7000
E000
E000
E000
E000
E000
FFF0
FFF8
3FF0
0000
0000
000E
000E
000E
000E
000E
000E
000E
000C
3FFC
FFFC
FFFC
ENDCHAR
STARTCHAR 0036
ENCODING 54
SWIDTH 600 0
DWIDTH 20 0
BBX 15 27 2 0
BITMAP
3FFE
7FFC
9FF8
6000
7000
7000
E000
E000
E000
E000
E000
FFF0
FFF8
BFF4
E00C
E00E
E00E
E00E
E00E
E00E
E00E
E00E
E00E
C00C
BFF4
FFFC
FFFC
ENDCHAR
STARTCHAR 0037
ENCODING 55
SWIDTH 600 0
DWIDTH 20 0
BBX 15 27 3 0
BITMAP
7FFC
FFF8
3FF2
0006
000E
001C
001C
001C
001C
001C
001C
001C
0008
0000
0008
001C
001C
001C
001C
001C
001C
001C
001C
0018
0018
0008
0008
ENDCHAR
STARTCHAR 0038
ENCODING 56
SWIDTH 600 0
DWIDTH 20 0
BBX 16 27 2 0
BITMAP
3FFE
7FFC
9FF9
6003
7007
700E
E00E
E00E
E00E
E00E
E00E
E00E
9FF4
FFFC
FFF4
E00E
E00E
E00E
E00E
E00E
E00E
E00E
E00E
C00E
BFFC
7FFC
FFFC
ENDCHAR
STARTCHAR 0039
ENCODING 57
SWIDTH 600 0
DWIDTH 20 0
BBX 16 27 2 0
BITMAP
3FFE
7FFC
9FF9
6003
7007
700E
E00E
E00E
E00E
E00E
E00E
E00E
9FF4
7FFC
1FF4
000E
000E
000E
000E
000E
000E
000E
000E
000E
3FFC
7FFC
FFFC
ENDCHAR
STARTCHAR 003A
ENCODING 58
SWIDTH 600 0
DWIDTH 20 0
BBX 12 3 3 12
BITMAP
3FE0
FFF0
7FF0
ENDCHAR
STARTCHAR 003B
ENCODING 59
SWIDTH 600 0
DWIDTH 20 0
BBX 6 26 14 -1
BITMAP
10
30
70
E0
E0
E0
E0
E0
E0
E0
E0
00
00
00
00
00
00
00
00
00
00
00
00
1C
1C
1C
ENDCHAR
STARTCHAR 003C
ENCODING 60
SWIDTH 600 0
DWIDTH 20 0
BBX 13 15 2 0
BITMAP
1FF0
7FF8
BFF8
E000
E000
E000
E000
E000
E000
E000
E000
C000
BFF0
FFF8
FFF8
ENDCHAR
STARTCHAR 003D
ENCODING 61
SWIDTH 600 0
DWIDTH 20 0
BBX 13 15 2 0
BITMAP
1FF0
7FF8
3FF8
0000
0000
0000
0000
0000
0000
0000
0000
0000
3FF0
FFF8
FFF8
ENDCHAR
STARTCHAR 003E
ENCODING 62
SWIDTH 600 0
DWIDTH 20 0
BBX 15 13 2 0
BITMAP
0004
000E
000E
000E
000E
000E
000E
000E
000E
000E
3FFC
7FFC
FFFC
ENDCHAR
STARTCHAR 003F
ENCODING 63
SWIDTH 600 0
DWIDTH 20 0
BBX 16 25 2 2
BITMAP
3FFE
7FFC
1FF9
0003
0007
000E
000E
000E
000E
000E
000E
1FFE
7FFC
BFF8
E000
E000
E000
E000
E000
E000
E000
E000
E000
C000
8000
ENDCHAR
STARTCHAR 0040
ENCODING 64
SWIDTH 600 0
DWIDTH 20 0
BBX 16 27 2 0
BITMAP
3FFE
7FFC
1FF9
0003
0007
000E
000E
000E
000E
000E
000E
000E
1FF0
FFFC
DFF4
E00E
E00E
E00E
E00E
E00E
E00E
E00E
E00E
C00E
BFFC
7FFC
FFFC
ENDCHAR
STARTCHAR 0041
ENCODING 65
SWIDTH 600 0
DWIDTH 20 0
BBX 16 27 2 0
BITMAP
3FFE
7FFC
9FF9
6003
7007
700E
E00E
E00E
E00E
E00E
E00E
E00E
9FF4
7FF8
BFFC
E00E
E00E
E00E
E00E
E00E
E00E
E00E
E00E
E00C
C00C
8004
0004
ENDCHAR
STARTCHAR 0042
ENCODING 66
SWIDTH 600 0
DWIDTH 20 0
BBX 15 25 2 0
BITMAP
8000
6000
7000
7000
E000
E000
E000
E000
E000
FFF0
FFF8
BFFC
C00E
E00E
E00E
E00E
E00E
E00E
E00E
E00E
E00E
C00C
BFF4
7FFC
FFFC
ENDCHAR
STARTCHAR 0043
ENCODING 67
SWIDTH 600 0
DWIDTH 20 0
BBX 15 27 2 0
BITMAP
3FFE
7FFC
9FF8
6000
7000
7000
E000
E000
E000
E000
E000
E000
8000
8000
C000
E000
E000
E000
E000
E000
E000
E000
E000
C000
BFF0
FFF8
FFF8
ENDCHAR
STARTCHAR 0044
ENCODING 68
SWIDTH 600 0
DWIDTH 20 0
BBX 16 25 2 0
BITMAP
0001
0003
0007
000E
000E
000E
000E
000E
000E
000E
1FFC
7FF8
BFFC
E00E
E00E
E00E
E00E
E00E
E00E
E00E
E00E
C00E
BFFC
7FFC
FFFC
ENDCHAR
STARTCHAR 0045
ENCODING 69
SWIDTH 600 0
DWIDTH 20 0
BBX 15 27 2 0
BITMAP
3FFE
7FFC
9FF8
6000
7000
7000
E000
E000
E000
E000
E000
E000
9FF0
FFFC
FFF0
E000
E000
E000
E000
E000
E000
E000
E000
C000
BFF0
FFF8
FFF8
ENDCHAR
STARTCHAR 0046
ENCODING 70
SWIDTH 600 0
DWIDTH 20 0
BBX 15 25 2 2
BITMAP
3FFE
7FFC
9FF8
6000
7000
7000
E000
E000
E000
E000
E000
FFF0
FFF8
BFF8
C000
E000
E000
E000
E000
E000
E000
E000
E000
C000
8000
ENDCHAR
STARTCHAR 0047
ENCODING 71
SWIDTH 600 0
DWIDTH 20 0
BBX 15 27 2 0
BITMAP
3FFE
7FFC
9FF8
6000
7000
7000
E000
E000
E000
E000
E000
E000
8000
0000
8004
E00E
E00E
E00E
E00E
E00E
E00E
E00E
E00E
C00C
BFFC
7FFC
FFFC
ENDCHAR
STARTCHAR 0048
ENCODING 72
SWIDTH 600 0
DWIDTH 20 0
BBX 16 26 2 0
BITMAP
0001
8003
6007
700E
700E
E00E
E00E
E00E
E00E
E00E
E00E
9FF4
7FF8
BFFC
E00E
E00E
E00E
E00E
E00E
E00E
E00E
E00E
E00C
C00C
8004
0004
ENDCHAR
STARTCHAR 0049
ENCODING 73
SWIDTH 600 0
DWIDTH 20 0
BBX 4 25 14 0
BITMAP
10
30
70
E0
E0
E0
E0
E0
E0
E0
E0
40
00
40
E0
E0
E0
E0
E0
E0
E0
E0
C0
C0
40
ENDCHAR
STARTCHAR 004A
ENCODING 74
SWIDTH 600 0
DWIDTH 20 0
BBX 16 25 2 0
BITMAP
0001
0003
0007
000E
000E
000E
000E
000E
000E
000E
0004
0000
8004
E00E
E00E
E00E
E00E
E00E
E00E
E00E
E00E
C00C
BFFC
7FFC
FFFC
ENDCHAR
STARTCHAR 004B
ENCODING 75
SWIDTH 600 0
DWIDTH 20 0
BBX 15 27 2 0
BITMAP
3FFE
7FFC
9FF8
6000
7000
7000
E000
E000
E000
E000
E000
E000
9FF0
7FF8
BFFC
E00E
E00E
E00E
E00E
E00E
E00E
E00E
E00E
E00C
C00C
8004
0004
ENDCHAR
STARTCHAR 004C
ENCODING 76
SWIDTH 600 0
DWIDTH 20 0
BBX 13 25 2 0
BITMAP
8000
6000
7000
7000
E000
E000
E000
E000
E000
E000
8000
8000
C000
E000
E000
E000
E000
E000
E000
E000
E000
C000
BFF0
FFF8
FFF8
ENDCHAR
STARTCHAR 004D
ENCODING 77
SWIDTH 600 0
DWIDTH 20 0
BBX 16 24 2 1
BITMAP
0001
0003
0007
000E
000E
000E
000E
000E
000E
000E
1FF6
7FF8
BFFC
E00E
E00E
E00E
E00E
E00E
E00E
E00E
E00C
C00C
8004
0004
ENDCHAR
STARTCHAR 004E
ENCODING 78
SWIDTH 600 0
DWIDTH 20 0
BBX 16 27 2 0
BITMAP
3FFE
7FFC
9FF9
6003
7007
700E
E00E
E00E
E00E
E00E
E00E
E00E
8004
0000
8004
E00E
E00E
E00E
E00E
E00E
E00E
E00E
E00E
E00C
C00C
8004
0004
ENDCHAR
STARTCHAR 004F
ENCODING 79
SWIDTH 600 0
DWIDTH 20 0
BBX 16 27 2 0
BITMAP
3FFE
7FFC
9FF9
6003
7007
700E
E00E
E00E
E00E
E00E
E00E
E00E
8000
8000
C006
E00E
E00E
E00E
E00E
E00E
E00E
E00E
E00E
C00C
BFFC
7FFC
FFFC
ENDCHAR
STARTCHAR 0050
ENCODING 80
SWIDTH 600 0
DWIDTH 20 0
BBX 16 25 2 2
BITMAP
3FFE
7FFC
9FF9
6003
7007
700E
E00E
E00E
E00E
E00E
E00E
FFFE
FFF8
BFF8
C000
E000
E000
E000
E000
E000
E000
E000
E000
C000
8000
ENDCHAR
STARTCHAR 0051
ENCODING 81
SWIDTH 600 0
DWIDTH 20 0
BBX 16 27 2 0
BITMAP
3FFE
7FFC
9FF9
6003
7007
700E
E00E
E00E
E00E
E00E
E00E
E00E
9FF4
7FF8
3FFC
000E
000E
000E
000E
000E
000E
000E
000E
000C
000C
0004
0004
ENDCHAR
STARTCHAR 0052
ENCODING 82
SWIDTH 600 0
DWIDTH 20 0
BBX 13 13 2 2
BITMAP
1FF0
7FF8
BFF8
E000
E000
E000
E000
E000
E000
E000
E000
C000
8000
ENDCHAR
STARTCHAR 0053
ENCODING 83
SWIDTH 600 0
DWIDTH 20 0
BBX 15 27 2 0
BITMAP
3FFE
7FFC
9FF8
6000
7000
7000
E000
E000
E000
E000
E000
FFF0
FFF8
3FF4
000C
000E
000E
000E
000E
000E
000E
000E
000E
000C
3FF4
FFFC
FFFC
ENDCHAR
STARTCHAR 0054
ENCODING 84
SWIDTH 600 0
DWIDTH 20 0
BBX 13 25 2 0
BITMAP
8000
6000
7000
7000
E000
E000
E000
E000
E000
FFF0
FFF8
BFF8
C000
E000
E000
E000
E000
E000
E000
E000
E000
C000
BFF0
FFF8
FFF8
ENDCHAR
STARTCHAR 0055
ENCODING 85
SWIDTH 600 0
DWIDTH 20 0
BBX 16 26 2 0
BITMAP
0001
8003
6007
700E
700E
E00E
E00E
E00E
E00E
E00E
E00E
8000
8000
C006
E00E
E00E
E00E
E00E
E00E
E00E
E00E
E00E
C00C
BFFC
7FFC
FFFC
ENDCHAR
STARTCHAR 0056
ENCODING 86
SWIDTH 600 0
DWIDTH 20 0
BBX 16 26 2 0
BITMAP
0001
8003
6007
700E
700E
E00E
E00E
E00E
E00E
E00E
E00E
8000
8000
C006
E00E
E00E
E00E
E00E
E00E
E00E
E00E
E00E
C00C
BFFC
7FFC
FFFC
ENDCHAR
STARTCHAR 0057
ENCODING 87
SWIDTH 600 0
DWIDTH 20 0
BBX 16 26 2 0
BITMAP
0001
8003
6007
700E
700E
E00E
E00E
E00E
E00E
E00E
FFFE
FFF8
BFFC
C00E
E00E
E00E
E00E
E00E
E00E
E00E
E00E
E00E
C00C
BFF4
7FFC
FFFC
ENDCHAR
STARTCHAR 0058
ENCODING 88
SWIDTH 600 0
DWIDTH 20 0
BBX 15 27 2 0
BITMAP
3FFE
7FFC
1FF8
0000
0000
0000
0000
0000
0000
0000
0000
0000
1FF0
7FFC
1FF0
0000
0000
0000
0000
0000
0000
0000
0000
0000
3FF0
FFF8
FFF8
ENDCHAR
STARTCHAR 0059
ENCODING 89
SWIDTH 600 0
DWIDTH 20 0
BBX 16 25 2 0
BITMAP
8001
6003
7007
700E
E00E
E00E
E00E
E00E
E00E
FFFE
FFFC
3FFC
000C
000E
000E
000E
000E
000E
000E
000E
000E
000E
3FF4
7FFC
FFFC
ENDCHAR
STARTCHAR 005A
ENCODING 90
SWIDTH 600 0
DWIDTH 20 0
BBX 16 25 2 2
BITMAP
3FFE
7FFC
1FF9
0003
0007
000E
000E
000E
000E
000E
000E
1FFE
7FF8
BFF8
C000
E000
E000
E000
E000
E000
E000
E000
E000
C000
8000
ENDCHAR
STARTCHAR 005B
ENCODING 91
SWIDTH 600 0
DWIDTH 20 0
BBX 15 27 2 0
BITMAP
3FFE
7FFC
9FF8
6000
7000
7000
E000
E000
E000
E000
E000
E000
8000
8000
C000
E000
E000
E000
E000
E000
E000
E000
E000
C000
BFF0
FFF8
FFF8
ENDCHAR
STARTCHAR 005C
ENCODING 92
SWIDTH 600 0
DWIDTH 20 0
BBX 15 25 2 0
BITMAP
8000
6000
7000
7000
E000
E000
E000
E000
E000
E000
9FF0
7FF8
3FFC
000E
000E
000E
000E
000E
000E
000E
000E
000C
000C
0004
0004
ENDCHAR
STARTCHAR 005D
ENCODING 93
SWIDTH 600 0
DWIDTH 20 0
BBX 16 27 2 0
BITMAP
3FFE
7FFC
1FF9
0003
0007
000E
000E
000E
000E
000E
000E
000E
0000
0000
0004
000E
000E
000E
000E
000E
000E
000E
000E
000C
3FFC
7FFC
FFFC
ENDCHAR
STARTCHAR 005E
ENCODING 94
SWIDTH 600 0
DWIDTH 20 0
BBX 16 13 2 14
BITMAP
3FFE
7FFC
9FF9
6003
7007
700E
E00E
E00E
E00E
E00E
E00E
E00E
8004
ENDCHAR
STARTCHAR 005F
ENCODING 95
SWIDTH 600 0
DWIDTH 20 0
BBX 12 3 3 12
BITMAP
3FE0
FFF0
7FF0
ENDCHAR
STARTCHAR 0060
ENCODING 96
SWIDTH 600 0
DWIDTH 20 0
BBX 4 11 14 13
BITMAP
10
30
70
E0
E0
E0
E0
E0
E0
E0
E0
ENDCHAR
STARTCHAR 0061
ENCODING 97
SWIDTH 600 0
DWIDTH 20 0
BBX 16 27 2 0
BITMAP
3FFE
7FFC
1FF9
0003
0007
000E
000E
000E
000E
000E
000E
000E
1FF4
FFFC
FFF4
E00E
E00E
E00E
E00E
E00E
E00E
E00E
E00E
C00E
BFFC
7FFC
FFFC
ENDCHAR
STARTCHAR 0062
ENCODING 98
SWIDTH 600 0
DWIDTH 20 0
BBX 15 25 2 0
BITMAP
8000
6000
7000
7000
E000
E000
E000
E000
E000
E000
9FF0
FFFC
FFF4
E00E
E00E
E00E
E00E
E00E
E00E
E00E
E00E
C00C
BFFC
7FFC
FFFC
ENDCHAR
STARTCHAR 0063
ENCODING 99
SWIDTH 600 0
DWIDTH 20 0
BBX 13 15 2 0
BITMAP
1FF0
7FF8
BFF8
E000
E000
E000
E000
E000
E000
E000
E000
C000
BFF0
FFF8
FFF8
ENDCHAR
STARTCHAR 0064
ENCODING 100
SWIDTH 600 0
DWIDTH 20 0
BBX 16 25 2 0
BITMAP
0001
0003
0007
000E
000E
000E
000E
000E
000E
000E
1FFC
7FF8
BFFC
E00E
E00E
E00E
E00E
E00E
E00E
E00E
E00E
C00C
BFFC
7FFC
FFFC
ENDCHAR
STARTCHAR 0065
ENCODING 101
SWIDTH 600 0
DWIDTH 20 0
BBX 16 27 2 0
BITMAP
3FFE
7FFC
9FF9
6003
7007
700E
E00E
E00E
E00E
E00E
E00E
E00E
9FF4
FFFC
FFF0
E000
E000
E000
E000
E000
E000
E000
E000
C000
BFF0
FFF8
FFF8
ENDCHAR
STARTCHAR 0066
ENCODING 102
SWIDTH 600 0
DWIDTH 20 0
BBX 15 25 2 2
BITMAP
3FFE
7FFC
9FF8
6000
7000
7000
E000
E000
E000
E000
E000
FFF0
FFF8
BFF8
E000
E000
E000
E000
E000
E000
E000
E000
E000
C000
8000
ENDCHAR
STARTCHAR 0067
ENCODING 103
SWIDTH 600 0
DWIDTH 20 0
BBX 16 27 2 0
BITMAP
3FFE
7FFC
9FF9
6003
7007
700E
E00E
E00E
E00E
E00E
E00E
E00E
9FF0
7FFC
1FF4
000E
000E
000E
000E
000E
000E
000E
000E
000E
3FFC
7FFC
FFFC
ENDCHAR
STARTCHAR 0068
ENCODING 104
SWIDTH 600 0
DWIDTH 20 0
BBX 15 25 2 0
BITMAP
8000
6000
7000
7000
E000
E000
E000
E000
E000
E000
9FF0
7FF8
BFFC
E00E
E00E
E00E
E00E
E00E
E00E
E00E
E00E
E00C
C00C
8004
0004
ENDCHAR
STARTCHAR 0069
ENCODING 105
SWIDTH 600 0
DWIDTH 20 0
BBX 3 11 14 1
BITMAP
E0
E0
E0
E0
E0
E0
E0
E0
C0
C0
40
ENDCHAR
STARTCHAR 006A
ENCODING 106
SWIDTH 600 0
DWIDTH 20 0
BBX 16 25 2 0
BITMAP
0001
0003
0007
000E
000E
000E
000E
000E
000E
000E
0004
0000
8004
E00E
E00E
E00E
E00E
E00E
E00E
E00E
E00E
C00C
BFFC
7FFC
FFFC
ENDCHAR
STARTCHAR 006B
ENCODING 107
SWIDTH 600 0
DWIDTH 20 0
BBX 15 27 2 0
BITMAP
3FFE
7FFC
9FF8
6000
7000
7000
E000
E000
E000
E000
E000
E000
9FF0
7FF8
BFFC
E00E
E00E
E00E
E00E
E00E
E00E
E00E
E00E
E00C
C00C
8004
0004
ENDCHAR
STARTCHAR 006C
ENCODING 108
SWIDTH 600 0
DWIDTH 20 0
BBX 13 25 2 0
BITMAP
8000
6000
7000
7000
E000
E000
E000
E000
E000
E000
8000
0000
8000
E000
E000
E000
E000
E000
E000
E000
E000
C000
BFF0
FFF8
FFF8
ENDCHAR
STARTCHAR 006D
ENCODING 109
SWIDTH 600 0
DWIDTH 20 0
BBX 16 23 2 2
BITMAP
8003
6007
700E
600E
E00E
E00E
E00E
E00E
E00E
9FF4
7FF8
BFF8
E000
E000
E000
E000
E000
E000
E000
E000
E000
C000
8000
ENDCHAR
STARTCHAR 006E
ENCODING 110
SWIDTH 600 0
DWIDTH 20 0
BBX 15 14 2 0
BITMAP
1FF0
7FF8
BFFC
E00E
E00E
E00E
E00E
E00E
E00E
E00E
E00C
C00C
8004
0004
ENDCHAR
STARTCHAR 006F
ENCODING 111
SWIDTH 600 0
DWIDTH 20 0
BBX 15 15 2 0
BITMAP
1FF0
7FF8
BFFC
E00C
E00E
E00E
E00E
E00E
E00E
E00E
E00E
C00E
BFFC
7FFC
FFFC
ENDCHAR
STARTCHAR 0070
ENCODING 112
SWIDTH 600 0
DWIDTH 20 0
BBX 16 25 2 2
BITMAP
3FFE
7FFC
9FF9
6003
7007
700E
E00E
E00E
E00E
E00E
E00E
FFFE
FFFC
BFF8
E000
E000
E000
E000
E000
E000
E000
E000
E000
C000
8000
ENDCHAR
STARTCHAR 0071
ENCODING 113
SWIDTH 600 0
DWIDTH 20 0
BBX 16 27 2 0
BITMAP
3FFE
7FFC
9FF9
6003
7007
700E
E00E
E00E
E00E
E00E
E00E
E00E
9FF4
7FF8
3FFC
000E
000E
000E
000E
000E
000E
000E
000E
000C
000C
0004
0004
ENDCHAR
STARTCHAR 0072
ENCODING 114
SWIDTH 600 0
DWIDTH 20 0
BBX 13 13 2 2
BITMAP
1FF0
7FF8
BFF8
E000
E000
E000
E000
E000
E000
E000
E000
C000
8000
ENDCHAR
STARTCHAR 0073
ENCODING 115
SWIDTH 600 0
DWIDTH 20 0
BBX 15 27 2 0
BITMAP
3FFE
7FFC
9FF8
6000
7000
7000
E000
E000
E000
E000
E000
FFF0
FFF8
3FF4
000C
000E
000E
000E
000E
000E
000E
000E
000E
000C
3FF4
FFFC
FFFC
ENDCHAR
STARTCHAR 0074
ENCODING 116
SWIDTH 600 0
DWIDTH 20 0
BBX 14 25 2 0
BITMAP
8000
6000
7000
7000
E000
E000
E000
E000
E000
E000
9FF0
FFFC
FFF0
E000
E000
E000
E000
E000
E000
E000
E000
C000
BFF0
FFF8
FFF8
ENDCHAR
STARTCHAR 0075
ENCODING 117
SWIDTH 600 0
DWIDTH 20 0
BBX 15 13 2 0
BITMAP
8004
E00E
E00E
E00E
E00E
E00E
E00E
E00E
E00E
C00C
BFFC
7FFC
FFFC
ENDCHAR
STARTCHAR 0076
ENCODING 118
SWIDTH 600 0
DWIDTH 20 0
BBX 16 25 2 0
BITMAP
8001
6007
700E
700E
E00E
E00E
E00E
E00E
E00E
E00E
8004
0000
8004
E00E
E00E
E00E
E00E
E00E
E00E
E00E
E00E
C00C
BFFC
7FFC
FFFC
ENDCHAR
STARTCHAR 0077
ENCODING 119
SWIDTH 600 0
DWIDTH 20 0
BBX 16 25 2 0
BITMAP
8001
6007
700E
700E
E00E
E00E
E00E
E00E
E00E
E00E
9FF4
FFFC
FFF4
E00E
E00E
E00E
E00E
E00E
E00E
E00E
E00E
C00C
BFFC
7FFC
FFFC
ENDCHAR
STARTCHAR 0078
ENCODING 120
SWIDTH 600 0
DWIDTH 20 0
BBX 16 25 2 0
BITMAP
8001
6007
700E
700E
E00E
E00E
E00E
E00E
E00E
E00E
9FF4
7FF8
BFFC
E00E
E00E
E00E
E00E
E00E
E00E
E00E
E00E
E00C
C00C
8004
0004
ENDCHAR
STARTCHAR 0079
ENCODING 121
SWIDTH 600 0
DWIDTH 20 0
BBX 16 25 2 0
BITMAP
8001
6003
7007
700E
E00E
E00E
E00E
E00E
E00E
E00E
9FFC
7FFC
1FF4
000E
000E
000E
000E
000E
000E
000E
000E
000C
3FFC
7FFC
FFFC
ENDCHAR
STARTCHAR 007A
ENCODING 122
SWIDTH 600 0
DWIDTH 20 0
BBX 16 23 2 2
BITMAP
0001
0003
0007
000E
000E
000E
000E
000E
000E
000E
1FF6
7FF8
BFF8
E000
E000
E000
E000
E000
E000
E000
E000
C000
8000
ENDCHAR
STARTCHAR 007B
ENCODING 123
SWIDTH 600 0
DWIDTH 20 0
BBX 0 0 0 0
BITMAP
ENDCHAR
STARTCHAR 007C
ENCODING 124
SWIDTH 600 0
DWIDTH 20 0
BBX 4 25 14 0
BITMAP
10
30
70
E0
E0
E0
E0
E0
E0
E0
E0
40
00
40
E0
E0
E0
E0
E0
E0
E0
E0
C0
C0
40
ENDCHAR
STARTCHAR 007D
ENCODING 125
SWIDTH 600 0
DWIDTH 20 0
BBX 0 0 0 0
BITMAP
ENDCHAR
STARTCHAR 007E
ENCODING 126
SWIDTH 600 0
DWIDTH 20 0
BBX 16 27 2 0
BITMAP
3FFE
7FFC
1FF9
0003
0007
000E
000E
000E
000E
000E
000E
000E
0004
0000
8000
E000
E000
E000
E000
E000
E000
E000
E000
C000
BFF0
FFF8
FFF8
ENDCHAR
STARTCHAR 007F
ENCODING 127
SWIDTH 600 0
DWIDTH 20 0
BBX 0 0 0 0
BITMAP
ENDCHAR
STARTCHAR 0080
ENCODING 128
SWIDTH 600 0
DWIDTH 20 0
BBX 0 0 0 0
BITMAP
ENDCHAR
STARTCHAR 0081
ENCODING 129
SWIDTH 600 0
DWIDTH 20 0
BBX 0 0 0 0
BITMAP
ENDCHAR
STARTCHAR 0082
ENCODING 130
SWIDTH 600 0
DWIDTH 20 0
BBX 0 0 0 0
BITMAP
ENDCHAR
STARTCHAR 0083
ENCODING 131
SWIDTH 600 0
DWIDTH 20 0
BBX 0 0 0 0
BITMAP
ENDCHAR
STARTCHAR 0084
ENCODING 132
SWIDTH 600 0
DWIDTH 20 0
BBX 0 0 0 0
BITMAP
ENDCHAR
STARTCHAR 0085
ENCODING 133
SWIDTH 600 0
DWIDTH 20 0
BBX 0 0 0 0
BITMAP
ENDCHAR
STARTCHAR 0086
ENCODING 134
SWIDTH 600 0
DWIDTH 20 0
BBX 0 0 0 0
BITMAP
ENDCHAR
STARTCHAR 0087
ENCODING 135
SWIDTH 600 0
DWIDTH 20 0
BBX 0 0 0 0
BITMAP
ENDCHAR
STARTCHAR 0088
ENCODING 136
SWIDTH 600 0
DWIDTH 20 0
BBX 0 0 0 0
BITMAP
ENDCHAR
STARTCHAR 0089
ENCODING 137
SWIDTH 600 0
DWIDTH 20 0
BBX 0 0 0 0
BITMAP
ENDCHAR
STARTCHAR 008A
ENCODING 138
SWIDTH 600 0
DWIDTH 20 0
BBX 0 0 0 0
BITMAP
ENDCHAR
STARTCHAR 008B
ENCODING 139
SWIDTH 600 0
DWIDTH 20 0
BBX 0 0 0 0
BITMAP
ENDCHAR
STARTCHAR 008C
ENCODING 140
SWIDTH 600 0
DWIDTH 20 0
BBX 0 0 0 0
BITMAP
ENDCHAR
STARTCHAR 008D
ENCODING 141
SWIDTH 600 0
DWIDTH 20 0
BBX 0 0 0 0
BITMAP
ENDCHAR
STARTCHAR 008E
ENCODING 142
SWIDTH 600 0
DWIDTH 20 0
BBX 0 0 0 0
BITMAP
ENDCHAR
STARTCHAR 008F
ENCODING 143
SWIDTH 600 0
DWIDTH 20 0
BBX 0 0 0 0
BITMAP
ENDCHAR
STARTCHAR 0090
ENCODING 144
SWIDTH 600 0
DWIDTH 20 0
BBX 0 0 0 0
BITMAP
ENDCHAR
STARTCHAR 0091
ENCODING 145
SWIDTH 600 0
DWIDTH 20 0
BBX 0 0 0 0
BITMAP
ENDCHAR
STARTCHAR 0092
ENCODING 146
SWIDTH 600 0
DWIDTH 20 0
BBX 0 0 0 0
BITMAP
ENDCHAR
STARTCHAR 0093
ENCODING 147
SWIDTH 600 0
DWIDTH 20 0
BBX 0 0 0 0
BITMAP
ENDCHAR
STARTCHAR 0094
ENCODING 148
SWIDTH 600 0
DWIDTH 20 0
BBX 0 0 0 0
BITMAP
ENDCHAR
STARTCHAR 0095
ENCODING 149
SWIDTH 600 0
DWIDTH 20 0
BBX 0 0 0 0
BITMAP
ENDCHAR
STARTCHAR 0096
ENCODING 150
SWIDTH 600 0
DWIDTH 20 0
BBX 0 0 0 0
BITMAP
ENDCHAR
STARTCHAR 0097
ENCODING 151
SWIDTH 600 0
DWIDTH 20 0
BBX 0 0 0 0
BITMAP
ENDCHAR
STARTCHAR 0098
ENCODING 152
SWIDTH 600 0
DWIDTH 20 0
BBX 0 0 0 0
BITMAP
ENDCHAR
STARTCHAR 0099
ENCODING 153
SWIDTH 600 0
DWIDTH 20 0
BBX 0 0 0 0
BITMAP
ENDCHAR
STARTCHAR 009A
ENCODING 154
SWIDTH 600 0
DWIDTH 20 0
BBX 0 0 0 0
BITMAP
ENDCHAR
STARTCHAR 009B
ENCODING 155
SWIDTH 600 0
DWIDTH 20 0
BBX 0 0 0 0
BITMAP
ENDCHAR
STARTCHAR 009C
ENCODING 156
SWIDTH 600 0
DWIDTH 20 0
BBX 0 0 0 0
BITMAP
ENDCHAR
STARTCHAR 009D
ENCODING 157
SWIDTH 600 0
DWIDTH 20 0
BBX 0 0 0 0
BITMAP
ENDCHAR
STARTCHAR 009E
ENCODING 158
SWIDTH 600 0
DWIDTH 20 0
BBX 0 0 0 0
BITMAP
ENDCHAR
STARTCHAR 009F
ENCODING 159
SWIDTH 600 0
DWIDTH 20 0
BBX 0 0 0 0
BITMAP
ENDCHAR
STARTCHAR 00A0
ENCODING 160
SWIDTH 600 0
DWIDTH 20 0
BBX 0 0 0 0
BITMAP
ENDCHAR
STARTCHAR 00A1
ENCODING 161
SWIDTH 600 0
DWIDTH 20 0
BBX 0 0 0 0
BITMAP
ENDCHAR
STARTCHAR 00A2
ENCODING 162
SWIDTH 600 0
DWIDTH 20 0
BBX 0 0 0 0
BITMAP
ENDCHAR
STARTCHAR 00A3
ENCODING 163
SWIDTH 600 0
DWIDTH 20 0
BBX 0 0 0 0
BITMAP
ENDCHAR
STARTCHAR 00A4
ENCODING 164
SWIDTH 600 0
DWIDTH 20 0
BBX 0 0 0 0
BITMAP
ENDCHAR
STARTCHAR 00A5
ENCODING 165
SWIDTH 600 0
DWIDTH 20 0
BBX 0 0 0 0
BITMAP
ENDCHAR
STARTCHAR 00A6
ENCODING 166
SWIDTH 600 0
DWIDTH 20 0
BBX 0 0 0 0
BITMAP
ENDCHAR
STARTCHAR 00A7
ENCODING 167
SWIDTH 600 0
DWIDTH 20 0
BBX 0 0 0 0
BITMAP
ENDCHAR
STARTCHAR 00A8
ENCODING 168
SWIDTH 600 0
DWIDTH 20 0
BBX 0 0 0 0
BITMAP
ENDCHAR
STARTCHAR 00A9
ENCODING 169
SWIDTH 600 0
DWIDTH 20 0
BBX 0 0 0 0
BITMAP
ENDCHAR
STARTCHAR 00AA
ENCODING 170
SWIDTH 600 0
DWIDTH 20 0
BBX 0 0 0 0
BITMAP
ENDCHAR
STARTCHAR 00AB
ENCODING 171
SWIDTH 600 0
DWIDTH 20 0
BBX 0 0 0 0
BITMAP
ENDCHAR
STARTCHAR 00AC
ENCODING 172
SWIDTH 600 0
DWIDTH 20 0
BBX 0 0 0 0
BITMAP
ENDCHAR
STARTCHAR 00AD
ENCODING 173
SWIDTH 600 0
DWIDTH 20 0
BBX 0 0 0 0
BITMAP
ENDCHAR
STARTCHAR 00AE
ENCODING 174
SWIDTH 600 0
DWIDTH 20 0
BBX 0 0 0 0
BITMAP
ENDCHAR
STARTCHAR 00AF
ENCODING 175
SWIDTH 600 0
DWIDTH 20 0
BBX 0 0 0 0
BITMAP
ENDCHAR
STARTCHAR 00B0
ENCODING 176
SWIDTH 600 0
DWIDTH 20 0
BBX 16 14 2 13
BITMAP
3FFE
7FFC
9FF9
6003
7007
700E
E00E
E00E
E00E
E00E
E00E
FFFE
FFF8
3FF8
ENDCHAR
STARTCHAR 00B1
ENCODING 177
SWIDTH 600 0
DWIDTH 20 0
BBX 0 0 0 0
BITMAP
ENDCHAR
STARTCHAR 00B2
ENCODING 178
SWIDTH 600 0
DWIDTH 20 0
BBX 0 0 0 0
BITMAP
ENDCHAR
STARTCHAR 00B3
ENCODING 179
SWIDTH 600 0
DWIDTH 20 0
BBX 0 0 0 0
BITMAP
ENDCHAR
STARTCHAR 00B4
ENCODING 180
SWIDTH 600 0
DWIDTH 20 0
BBX 0 0 0 0
BITMAP
ENDCHAR
STARTCHAR 00B5
ENCODING 181
SWIDTH 600 0
DWIDTH 20 0
BBX 16 24 2 2
BITMAP
0003
8007
600F
700E
700E
E00E
E00E
E00E
E00E
E00E
FFF6
FFF8
BFF8
C000
E000
E000
E000
E000
E000
E000
E000
E000
C000
8000
ENDCHAR
STARTCHAR 00B6
ENCODING 182
SWIDTH 600 0
DWIDTH 20 0
BBX 0 0 0 0
BITMAP
ENDCHAR
STARTCHAR 00B7
ENCODING 183
SWIDTH 600 0
DWIDTH 20 0
BBX 0 0 0 0
BITMAP
ENDCHAR
STARTCHAR 00B8
ENCODING 184
SWIDTH 600 0
DWIDTH 20 0
BBX 0 0 0 0
BITMAP
ENDCHAR
STARTCHAR 00B9
ENCODING 185
SWIDTH 600 0
DWIDTH 20 0
BBX 0 0 0 0
BITMAP
ENDCHAR
STARTCHAR 00BA
ENCODING 186
SWIDTH 600 0
DWIDTH 20 0
BBX 0 0 0 0
BITMAP
ENDCHAR
STARTCHAR 00BB
ENCODING 187
SWIDTH 600 0
DWIDTH 20 0
BBX 0 0 0 0
BITMAP
ENDCHAR
STARTCHAR 00BC
ENCODING 188
SWIDTH 600 0
DWIDTH 20 0
BBX 0 0 0 0
BITMAP
ENDCHAR
STARTCHAR 00BD
ENCODING 189
SWIDTH 600 0
DWIDTH 20 0
BBX 0 0 0 0
BITMAP
ENDCHAR
STARTCHAR 00BE
ENCODING 190
SWIDTH 600 0
DWIDTH 20 0
BBX 0 0 0 0
BITMAP
ENDCHAR
STARTCHAR 00BF
ENCODING 191
SWIDTH 600 0
DWIDTH 20 0
BBX 0 0 0 0
BITMAP
ENDCHAR
STARTCHAR 00C0
ENCODING 192
SWIDTH 600 0
DWIDTH 20 0
BBX 0 0 0 0
BITMAP
ENDCHAR
STARTCHAR 00C1
ENCODING 193
SWIDTH 600 0
DWIDTH 20 0
BBX 0 0 0 0
BITMAP
ENDCHAR
STARTCHAR 00C2
ENCODING 194
SWIDTH 600 0
DWIDTH 20 0
BBX 0 0 0 0
BITMAP
ENDCHAR
STARTCHAR 00C3
ENCODING 195
SWIDTH 600 0
DWIDTH 20 0
BBX 0 0 0 0
BITMAP
ENDCHAR
STARTCHAR 00C4
ENCODING 196
SWIDTH 600 0
DWIDTH 20 0
BBX 0 0 0 0
BITMAP
ENDCHAR
STARTCHAR 00C5
ENCODING 197
SWIDTH 600 0
DWIDTH 20 0
BBX 0 0 0 0
BITMAP
ENDCHAR
STARTCHAR 00C6
ENCODING 198
SWIDTH 600 0
DWIDTH 20 0
BBX 0 0 0 0
BITMAP
ENDCHAR
STARTCHAR 00C7
ENCODING 199
SWIDTH 600 0
DWIDTH 20 0
BBX 0 0 0 0
BITMAP
ENDCHAR
STARTCHAR 00C8
ENCODING 200
SWIDTH 600 0
DWIDTH 20 0
BBX 0 0 0 0
BITMAP
ENDCHAR
STARTCHAR 00C9
ENCODING 201
SWIDTH 600 0
DWIDTH 20 0
BBX 0 0 0 0
BITMAP
ENDCHAR
STARTCHAR 00CA
ENCODING 202
SWIDTH 600 0
DWIDTH 20 0
BBX 0 0 0 0
BITMAP
ENDCHAR
STARTCHAR 00CB
ENCODING 203
SWIDTH 600 0
DWIDTH 20 0
BBX 0 0 0 0
BITMAP
ENDCHAR
STARTCHAR 00CC
ENCODING 204
SWIDTH 600 0
DWIDTH 20 0
BBX 0 0 0 0
BITMAP
ENDCHAR
STARTCHAR 00CD
ENCODING 205
SWIDTH 600 0
DWIDTH 20 0
BBX 0 0 0 0
BITMAP
ENDCHAR
STARTCHAR 00CE
ENCODING 206
SWIDTH 600 0
DWIDTH 20 0
BBX 0 0 0 0
BITMAP
ENDCHAR
STARTCHAR 00CF
ENCODING 207
SWIDTH 600 0
DWIDTH 20 0
BBX 0 0 0 0
BITMAP
ENDCHAR
STARTCHAR 00D0
ENCODING 208
SWIDTH 600 0
DWIDTH 20 0
BBX 0 0 0 0
BITMAP
ENDCHAR
STARTCHAR 00D1
ENCODING 209
SWIDTH 600 0
DWIDTH 20 0
BBX 0 0 0 0
BITMAP
ENDCHAR
STARTCHAR 00D2
ENCODING 210
SWIDTH 600 0
DWIDTH 20 0
BBX 0 0 0 0
BITMAP
ENDCHAR
STARTCHAR 00D3
ENCODING 211
SWIDTH 600 0
DWIDTH 20 0
BBX 0 0 0 0
BITMAP
ENDCHAR
STARTCHAR 00D4
ENCODING 212
SWIDTH 600 0
DWIDTH 20 0
BBX 0 0 0 0
BITMAP
ENDCHAR
STARTCHAR 00D5
ENCODING 213
SWIDTH 600 0
DWIDTH 20 0
BBX 0 0 0 0
BITMAP
ENDCHAR
STARTCHAR 00D6
ENCODING 214
SWIDTH 600 0
DWIDTH 20 0
BBX 0 0 0 0
BITMAP
ENDCHAR
STARTCHAR 00D7
ENCODING 215
SWIDTH 600 0
DWIDTH 20 0
BBX 0 0 0 0
BITMAP
ENDCHAR
STARTCHAR 00D8
ENCODING 216
SWIDTH 600 0
DWIDTH 20 0
BBX 0 0 0 0
BITMAP
ENDCHAR
STARTCHAR 00D9
ENCODING 217
SWIDTH 600 0
DWIDTH 20 0
BBX 0 0 0 0
BITMAP
ENDCHAR
STARTCHAR 00DA
ENCODING 218
SWIDTH 600 0
DWIDTH 20 0
BBX 0 0 0 0
BITMAP
ENDCHAR
STARTCHAR 00DB
ENCODING 219
SWIDTH 600 0
DWIDTH 20 0
BBX 0 0 0 0
BITMAP
ENDCHAR
STARTCHAR 00DC
ENCODING 220
SWIDTH 600 0
DWIDTH 20 0
BBX 0 0 0 0
BITMAP
ENDCHAR
STARTCHAR 00DD
ENCODING 221
SWIDTH 600 0
DWIDTH 20 0
BBX 0 0 0 0
BITMAP
ENDCHAR
STARTCHAR 00DE
ENCODING 222
SWIDTH 600 0
DWIDTH 20 0
BBX 0 0 0 0
BITMAP
ENDCHAR
STARTCHAR 00DF
ENCODING 223
SWIDTH 600 0
DWIDTH 20 0
BBX 0 0 0 0
BITMAP
ENDCHAR
STARTCHAR 00E0
ENCODING 224
SWIDTH 600 0
DWIDTH 20 0
BBX 16 27 2 0
BITMAP
3FFE
7FFC
1FF9
0003
0007
000E
000E
000E
000E
000E
000E
000E
1FF0
FFFC
DFF4
E00E
E00E
E00E
E00E
E00E
E00E
E00E
E00E
C00E
BFFC
7FFC
FFFC
ENDCHAR
STARTCHAR 00E1
ENCODING 225
SWIDTH 600 0
DWIDTH 20 0
BBX 16 27 2 0
BITMAP
3FFE
7FFC
1FF9
0003
0007
000E
000E
000E
000E
000E
000E
000E
1FF0
FFFC
DFF4
E00E
E00E
E00E
E00E
E00E
E00E
E00E
E00E
C00E
BFFC
7FFC
FFFC
ENDCHAR
STARTCHAR 00E2
ENCODING 226
SWIDTH 600 0
DWIDTH 20 0
BBX 0 0 0 0
BITMAP
ENDCHAR
STARTCHAR 00E3
ENCODING 227
SWIDTH 600 0
DWIDTH 20 0
BBX 0 0 0 0
BITMAP
ENDCHAR
STARTCHAR 00E4
ENCODING 228
SWIDTH 600 0
DWIDTH 20 0
BBX 0 0 0 0
BITMAP
ENDCHAR
STARTCHAR 00E5
ENCODING 229
SWIDTH 600 0
DWIDTH 20 0
BBX 0 0 0 0
BITMAP
ENDCHAR
STARTCHAR 00E6
ENCODING 230
SWIDTH 600 0
DWIDTH 20 0
BBX 0 0 0 0
BITMAP
ENDCHAR
STARTCHAR 00E7
ENCODING 231
SWIDTH 600 0
DWIDTH 20 0
BBX 0 0 0 0
BITMAP
ENDCHAR
STARTCHAR 00E8
ENCODING 232
SWIDTH 600 0
DWIDTH 20 0
BBX 0 0 0 0
BITMAP
ENDCHAR
STARTCHAR 00E9
ENCODING 233
SWIDTH 600 0
DWIDTH 20 0
BBX 16 27 2 0
BITMAP
3FFE
7FFC
9FF9
6003
7007
700E
E00E
E00E
E00E
E00E
E00E
E00E
9FF0
FFFC
DFF0
E000
E000
E000
E000
E000
E000
E000
E000
C000
BFF0
FFF8
FFF8
ENDCHAR
STARTCHAR 00EA
ENCODING 234
SWIDTH 600 0
DWIDTH 20 0
BBX 0 0 0 0
BITMAP
ENDCHAR
STARTCHAR 00EB
ENCODING 235
SWIDTH 600 0
DWIDTH 20 0
BBX 0 0 0 0
BITMAP
ENDCHAR
STARTCHAR 00EC
ENCODING 236
SWIDTH 600 0
DWIDTH 20 0
BBX 0 0 0 0
BITMAP
ENDCHAR
STARTCHAR 00ED
ENCODING 237
SWIDTH 600 0
DWIDTH 20 0
BBX 0 0 0 0
BITMAP
ENDCHAR
STARTCHAR 00EE
ENCODING 238
SWIDTH 600 0
DWIDTH 20 0
BBX 0 0 0 0
BITMAP
ENDCHAR
STARTCHAR 00EF
ENCODING 239
SWIDTH 600 0
DWIDTH 20 0
BBX 0 0 0 0
BITMAP
ENDCHAR
STARTCHAR 00F0
ENCODING 240
SWIDTH 600 0
DWIDTH 20 0
BBX 0 0 0 0
BITMAP
ENDCHAR
STARTCHAR 00F1
ENCODING 241
SWIDTH 600 0
DWIDTH 20 0
BBX 0 0 0 0
BITMAP
ENDCHAR
STARTCHAR 00F2
ENCODING 242
SWIDTH 600 0
DWIDTH 20 0
BBX 0 0 0 0
BITMAP
ENDCHAR
STARTCHAR 00F3
ENCODING 243
SWIDTH 600 0
DWIDTH 20 0
BBX 0 0 0 0
BITMAP
ENDCHAR
STARTCHAR 00F4
ENCODING 244
SWIDTH 600 0
DWIDTH 20 0
BBX 0 0 0 0
BITMAP
ENDCHAR
STARTCHAR 00F5
ENCODING 245
SWIDTH 600 0
DWIDTH 20 0
BBX 0 0 0 0
BITMAP
ENDCHAR
STARTCHAR 00F6
ENCODING 246
SWIDTH 600 0
DWIDTH 20 0
BBX 0 0 0 0
BITMAP
ENDCHAR
STARTCHAR 00F7
ENCODING 247
SWIDTH 600 0
DWIDTH 20 0
BBX 0 0 0 0
BITMAP
ENDCHAR
STARTCHAR 00F8
ENCODING 248
SWIDTH 600 0
DWIDTH 20 0
BBX 0 0 0 0
BITMAP
ENDCHAR
STARTCHAR 00F9
ENCODING 249
SWIDTH 600 0
DWIDTH 20 0
BBX 0 0 0 0
BITMAP
ENDCHAR
STARTCHAR 00FA
ENCODING 250
SWIDTH 600 0
DWIDTH 20 0
BBX 0 0 0 0
BITMAP
ENDCHAR
STARTCHAR 00FB
ENCODING 251
SWIDTH 600 0
DWIDTH 20 0
BBX 0 0 0 0
BITMAP
ENDCHAR
STARTCHAR 00FC
ENCODING 252
SWIDTH 600 0
DWIDTH 20 0
BBX 0 0 0 0
BITMAP
ENDCHAR
STARTCHAR 00FD
ENCODING 253
SWIDTH 600 0
DWIDTH 20 0
BBX 0 0 0 0
BITMAP
ENDCHAR
STARTCHAR 00FE
ENCODING 254
SWIDTH 600 0
DWIDTH 20 0
BBX 0 0 0 0
BITMAP
ENDCHAR
STARTCHAR 00FF
ENCODING 255
SWIDTH 600 0
DWIDTH 20 0
BBX 0 0 0 0
BITMAP
ENDCHAR
ENDFONT
